<?xml version="1.0" encoding="UTF-8" standalone="no"?>
<svg
        xmlns:dc="http://purl.org/dc/elements/1.1/"
        xmlns:cc="http://creativecommons.org/ns#"
        xmlns:rdf="http://www.w3.org/1999/02/22-rdf-syntax-ns#"
        xmlns="http://www.w3.org/2000/svg"
        xmlns:xlink="http://www.w3.org/1999/xlink"
        width="700"
        height="700"
        viewBox="0 0 185.20834 185.20834"
        version="1.1"
        id="svg1008">
  <defs
     id="defs1002">
    <linearGradient
       id="linearGradient2171">
      <stop
         style="stop-color:#fff9a9;stop-opacity:0.37254903"
         offset="0"
         id="stop2165" />
      <stop
         style="stop-color:#ffef96;stop-opacity:0.1021999"
         offset="0.5"
         id="stop2167" />
      <stop
         style="stop-color:#ffec63;stop-opacity:0.00264023"
         offset="0.75"
         id="stop2173" />
      <stop
         style="stop-color:#ffea30;stop-opacity:0"
         offset="1"
         id="stop2169" />
    </linearGradient>
    <linearGradient
       id="linearGradient2131">
      <stop
         style="stop-color:#fffded;stop-opacity:0.81651807"
         offset="0"
         id="stop2127" />
      <stop
         style="stop-color:#fffcdf;stop-opacity:0.53720075"
         offset="0.5"
         id="stop2137" />
      <stop
         style="stop-color:#ffffff;stop-opacity:0"
         offset="1"
         id="stop2129" />
    </linearGradient>
    <linearGradient
       id="linearGradient2073">
      <stop
         style="stop-color:#fff7e7;stop-opacity:0.98893034"
         offset="0"
         id="stop2067" />
      <stop
         style="stop-color:#ffea51;stop-opacity:1"
         offset="0.58999997"
         id="stop2069" />
      <stop
         style="stop-color:#ffb800;stop-opacity:1"
         offset="1"
         id="stop2071" />
    </linearGradient>
    <radialGradient
       xlink:href="#linearGradient1018"
       id="radialGradient1020"
       cx="77.560883"
       cy="67.446457"
       fx="77.560883"
       fy="67.446457"
       r="64.468956"
       gradientUnits="userSpaceOnUse"
       gradientTransform="matrix(0.73371669,1.2708346,-1.0409322,0.60099607,93.712059,-58.333995)" />
    <linearGradient
       id="linearGradient1018">
      <stop
         style="stop-color:#fff82e;stop-opacity:1"
         offset="0"
         id="stop1014" />
      <stop
         style="stop-color:#ff8600;stop-opacity:1"
         offset="1"
         id="stop1016" />
    </linearGradient>
    <radialGradient
       xlink:href="#linearGradient1872"
       id="radialGradient1830-0"
       cx="349.4173"
       cy="349.06689"
       fx="349.4173"
       fy="349.06689"
       r="300.66016"
       gradientTransform="matrix(0.2228554,0.06855889,-0.06456846,0.20989523,37.60354,-4.0058082)"
       gradientUnits="userSpaceOnUse" />
    <linearGradient
       id="linearGradient1872">
      <stop
         style="stop-color:#fff4b4;stop-opacity:1;"
         offset="0"
         id="stop1866" />
      <stop
         style="stop-color:#ffef50;stop-opacity:1"
         offset="0.69999999"
         id="stop1868" />
      <stop
         style="stop-color:#ffeda6;stop-opacity:1"
         offset="1"
         id="stop1870" />
    </linearGradient>
    <radialGradient
       xlink:href="#linearGradient1836"
       id="radialGradient1830"
       cx="349.4173"
       cy="349.06689"
       fx="349.4173"
       fy="349.06689"
       r="300.66016"
       gradientTransform="matrix(0.24146523,-0.04131559,0.03891605,0.22742121,-5.4190978,27.680158)"
       gradientUnits="userSpaceOnUse" />
    <linearGradient
       id="linearGradient1836">
      <stop
         style="stop-color:#fff4b4;stop-opacity:1;"
         offset="0"
         id="stop1832" />
      <stop
         style="stop-color:#ffc648;stop-opacity:1"
         offset="0.80000001"
         id="stop1838" />
      <stop
         style="stop-color:#ffae00;stop-opacity:1"
         offset="1"
         id="stop1834" />
    </linearGradient>
    <radialGradient
       xlink:href="#linearGradient2073"
       id="radialGradient2065"
       cx="350.47302"
       cy="352.40045"
       fx="350.47302"
       fy="352.40045"
       r="324.01758"
       gradientTransform="matrix(0.25057749,-0.18556638,0.14916579,0.2014225,-47.501475,85.084891)"
       gradientUnits="userSpaceOnUse" />
    <radialGradient
       xlink:href="#linearGradient1820"
       id="radialGradient1020-8"
       cx="88.773727"
       cy="63.517612"
       fx="88.773727"
       fy="63.517612"
       r="64.468956"
       gradientUnits="userSpaceOnUse"
       gradientTransform="matrix(0.44201773,0.75138827,-0.74632483,0.43904328,100.8945,-1.9339557)" />
    <linearGradient
       id="linearGradient1820">
      <stop
         style="stop-color:#fff4b4;stop-opacity:0"
         offset="0"
         id="stop1816" />
      <stop
         style="stop-color:#f0ba5a;stop-opacity:0;"
         offset="0.75"
         id="stop1822" />
      <stop
         style="stop-color:#fff274;stop-opacity:0.84705889"
         offset="1"
         id="stop1818" />
    </linearGradient>
    <radialGradient
       xlink:href="#linearGradient2131"
       id="radialGradient2133"
       cx="93.525307"
       cy="68.181641"
       fx="93.525307"
       fy="68.181641"
       r="44.625431"
       gradientTransform="matrix(0.98276729,0.00528918,-0.00322951,0.60285783,2.0475808,25.053584)"
       gradientUnits="userSpaceOnUse" />
    <radialGradient
       xlink:href="#linearGradient2171"
       id="radialGradient2133-3"
       cx="93.525307"
       cy="68.181641"
       fx="93.525307"
       fy="68.181641"
       r="44.625431"
       gradientTransform="matrix(0.61266046,0.00270719,-0.00201328,0.30856342,-104.25485,155.02083)"
       gradientUnits="userSpaceOnUse" />
  </defs>
  <metadata
     id="metadata1005">
    <rdf:RDF>
      <cc:Work
         rdf:about="">
        <dc:format>image/svg+xml</dc:format>
        <dc:type
           rdf:resource="http://purl.org/dc/dcmitype/StillImage" />
        <dc:title></dc:title>
      </cc:Work>
    </rdf:RDF>
  </metadata>
  <g
     id="layer5"
     style="display:inline">
    <path
       id="path1633"
       style="fill:url(#radialGradient1830);fill-opacity:1;stroke-width:0.222325"
       d="m 127.70137,28.119941 a 52.409136,51.502165 77.791083 0 1 -22.63699,11.370686 52.409136,51.502165 77.791083 0 1 -1.7255,0.341758 54.172349,54.172349 0 0 0 -6.960009,-0.936913 54.172349,54.172349 0 0 0 -31.578987,7.57603 38.070478,36.213783 3.9513794 0 1 -7.089286,0.140577 38.070478,36.213783 3.9513794 0 1 -17.702998,-5.558924 52.409136,51.502165 3.9513794 0 1 4.62092,24.907271 52.409136,51.502165 3.9513794 0 1 -0.213251,2.312193 52.409136,51.502165 3.9513794 0 1 -3.6e-5,5.12e-4 54.172349,54.172349 0 0 0 -5.812932,20.932958 54.172349,54.172349 0 0 0 11.233206,36.927681 54.172349,54.172349 0 0 1 -9.794103,-19.89039 36.213783,38.070478 20.475755 0 1 -1.881666,6.8373 36.213783,38.070478 20.475755 0 1 -10.364721,15.39102 51.502165,52.409136 20.475755 0 1 25.193039,2.65381 51.502165,52.409136 20.475755 0 1 2.073898,0.82748 54.172349,54.172349 0 0 0 33.149873,14.97645 38.070478,36.213783 39.379842 0 1 5.707787,3.91076 38.070478,36.213783 39.379842 0 1 11.202686,14.79151 52.409136,51.502165 39.379842 0 1 10.67304,-22.97379 52.409136,51.502165 39.379842 0 1 1.07225,-1.26307 54.172349,54.172349 0 0 0 29.81805,-44.668157 36.213783,38.070478 39.320682 0 1 3.67073,-5.301725 36.213783,38.070478 39.320682 0 1 14.77994,-11.217853 51.502165,52.409136 39.320682 0 1 -22.98501,-10.649438 51.502165,52.409136 39.320682 0 1 -1.08874,-0.917876 54.172349,54.172349 0 0 0 -11.85838,-15.677292 38.070478,36.213783 77.791083 0 1 -1.91454,-6.291671 38.070478,36.213783 77.791083 0 1 0.41172,-18.550821 z" />
    <path
       id="path1633-5"
       style="fill:url(#radialGradient1830-0);fill-opacity:1;stroke-width:0.211606"
       d="m 150.49774,53.513408 a 49.018941,49.882184 14.600488 0 1 -24.11083,-0.0584 49.018941,49.882184 14.600488 0 1 -1.61246,-0.450394 51.560381,51.560381 0 0 0 -5.51019,-3.783669 A 51.560381,51.560381 0 0 0 89.186359,42.10047 36.234881,34.467705 30.760784 0 1 83.103819,39.176618 36.234881,34.467705 30.760784 0 1 70.45182,26.854931 49.882184,49.018941 30.760784 0 1 63.685061,49.99678 a 49.882184,49.018941 30.760784 0 1 -1.173723,1.872615 49.882184,49.018941 30.760784 0 1 -2.17e-4,2.65e-4 51.560381,51.560381 0 0 0 -13.924013,15.286738 51.560381,51.560381 0 0 0 -6.309856,36.191432 51.560381,51.560381 0 0 1 0.21862,-21.10085 34.467705,36.234881 47.28516 0 1 -4.533537,5.000387 34.467705,36.234881 47.28516 0 1 -15.411632,8.625105 49.018941,49.882184 47.28516 0 1 20.261731,13.069148 49.018941,49.882184 47.28516 0 1 1.406506,1.59322 51.560381,51.560381 0 0 0 21.731055,26.95267 36.234881,34.467705 66.189247 0 1 3.169846,5.77233 36.234881,34.467705 66.189247 0 1 3.166779,17.37413 49.882184,49.018941 66.189247 0 1 18.92866,-14.93406 49.882184,49.018941 66.189247 0 1 1.453052,-0.61265 51.560381,51.560381 0 0 0 44.504828,-25.14442 34.467705,36.234881 66.130087 0 1 5.39412,-2.92794 34.467705,36.234881 66.130087 0 1 17.37081,-3.18463 49.018941,49.882184 66.130087 0 1 -14.9537,-18.913417 49.018941,49.882184 66.130087 0 1 -0.53084,-1.24709 51.560381,51.560381 0 0 0 -3.34354,-18.40806 34.467705,36.234881 14.600488 0 1 1.07453,-6.166509 34.467705,36.234881 14.600488 0 1 8.31319,-15.581781 z" />
    <path
       id="rect1912"
       style="fill:url(#radialGradient2065);fill-opacity:1;stroke-width:0.399328"
       d="M 100.40464,3.0155662 A 31.551437,105.44126 5.0473354 0 1 83.734858,39.267944 l 26.727882,2.360639 A 31.551437,105.44126 5.0473354 0 1 100.40464,3.0155662 Z m 57.50725,27.5805188 a 31.551437,106.93186 47.088402 0 1 -37.04591,16.122058 l 18.26885,19.651734 A 31.551437,106.93186 47.088402 0 1 157.91189,30.596085 Z M 53.09473,54.850358 A 119.9773,35.759838 24.520872 0 1 8.0559962,51.077051 119.9773,35.759838 24.520872 0 1 40.866099,82.696962 Z m 89.82344,20.471625 1.35859,26.797467 A 31.551437,106.93186 87.097546 0 1 181.65799,86.790935 31.551437,106.93186 87.097546 0 1 142.91817,75.321983 Z m -7.97281,37.830787 -24.4175,23.55239 a 135.13485,39.892435 46.258827 0 1 45.51941,23.00679 135.13485,39.892435 46.258827 0 1 -21.10191,-46.55918 z m -87.34817,4.4491 A 36.555317,122.30595 42.309445 0 1 30.367958,159.887 36.555317,122.30595 42.309445 0 1 71.549579,137.46631 Z" />
  </g>
  <g
     id="layer3"
     style="display:inline">
    <circle
       style="fill:url(#radialGradient1020);fill-opacity:1;stroke-width:0.229323"
       id="path1012"
       cx="92.862984"
       cy="92.967812"
       r="55.877277" />
  </g>
  <g
     id="layer6"
     style="display:inline">
    <circle
       style="display:inline;fill:url(#radialGradient1020-8);fill-opacity:1;stroke-width:0.229322"
       id="path1012-2"
       cx="92.862984"
       cy="92.967812"
       r="55.877277" />
  </g>
  <g
     id="layer7">
    <ellipse
       style="fill:url(#radialGradient2133);fill-opacity:1;stroke-width:0.264583"
       id="path2125"
       cx="93.247475"
       cy="68.206581"
       rx="44.625431"
       ry="29.568932" />
    <ellipse
       style="fill:url(#radialGradient2133-3);fill-opacity:1;stroke-width:0.149456"
       id="path2125-9"
       cx="-47.400539"
       cy="177.10806"
       rx="27.819649"
       ry="15.134401"
       transform="matrix(0.68938617,-0.72439403,0.85105199,0.52508144,0,0)" />
  </g>
</svg>
