<?xml version="1.0" encoding="UTF-8" standalone="no"?>
<svg
   xmlns:dc="http://purl.org/dc/elements/1.1/"
   xmlns:cc="http://creativecommons.org/ns#"
   xmlns:rdf="http://www.w3.org/1999/02/22-rdf-syntax-ns#"
   xmlns:svg="http://www.w3.org/2000/svg"
   xmlns="http://www.w3.org/2000/svg"
   xmlns:sodipodi="http://sodipodi.sourceforge.net/DTD/sodipodi-0.dtd"
   xmlns:inkscape="http://www.inkscape.org/namespaces/inkscape"
   width="800"
   height="800"
   viewBox="0 0 800 800"
   version="1.1"
   id="svg220"
   sodipodi:docname="leaf_1.svg"
   inkscape:version="1.0.1 (3bc2e813f5, 2020-09-07)">
  <metadata
     id="metadata7">
    <rdf:RDF>
      <cc:Work
         rdf:about="">
        <dc:format>image/svg+xml</dc:format>
        <dc:type
           rdf:resource="http://purl.org/dc/dcmitype/StillImage" />
        <dc:title></dc:title>
      </cc:Work>
    </rdf:RDF>
  </metadata>
  <defs
     id="defs224" />
  <sodipodi:namedview
     pagecolor="#ffffff"
     bordercolor="#666666"
     borderopacity="1"
     objecttolerance="10"
     gridtolerance="10"
     guidetolerance="10"
     inkscape:pageopacity="0"
     inkscape:pageshadow="2"
     inkscape:window-width="2560"
     inkscape:window-height="1355"
     id="namedview222"
     showgrid="false"
     inkscape:zoom="0.89355469"
     inkscape:cx="269.48335"
     inkscape:cy="394.37879"
     inkscape:window-x="0"
     inkscape:window-y="0"
     inkscape:window-maximized="1"
     inkscape:current-layer="layer2"
     inkscape:document-rotation="0" />
  <desc
     id="desc2">photosynthesis.blend, (Blender 2.90.0)</desc>
  <g
     inkscape:groupmode="layer"
     id="layer2"
     inkscape:label="Layer 2">
    <path
       id="path849"
       style="fill:#000000;fill-opacity:0.2;stroke:none;stroke-width:0.694302px;stroke-linecap:butt;stroke-linejoin:miter;stroke-opacity:1"
       d="m 399.99998,226.11786 c 0,0 -159.99998,112.00059 -159.99998,185.9414 0,69.56832 77.65061,95.24138 138.74783,98.03488 a 59.704216,153.98853 0 0 1 -3.16367,-49.46087 59.704216,153.98853 0 0 1 4.10072,-56.08793 99.311013,77.285036 22.241016 0 1 -46.90336,-59.68827 80.998191,61.942058 22.241016 0 0 48.44249,50.4508 59.704216,153.98853 0 0 1 36.11184,-81.53573 59.74162,129.24154 0 0 0 -24.11074,103.73984 59.74162,129.24154 0 0 0 0.01,2.22664 61.942058,80.998191 67.758984 0 0 37.6347,-7.68072 61.942058,80.998191 67.758984 0 0 52.2964,-52.11739 77.285036,99.311013 67.758984 0 1 -65.12878,68.91624 77.285036,99.311013 67.758984 0 1 -24.1948,7.18034 59.74162,129.24154 0 0 0 17.56232,74.31336 C 473.63527,509.97512 560,485.42826 560,412.05925 560,338.11844 400.00002,226.11786 400.00002,226.11786 Z"
       inkscape:transform-center-y="-249.43935"
       inkscape:transform-center-x="0.072540985" />
  </g>
</svg>
