<?xml version="1.0" encoding="UTF-8" standalone="no"?>
<svg
   xmlns:dc="http://purl.org/dc/elements/1.1/"
   xmlns:cc="http://creativecommons.org/ns#"
   xmlns:rdf="http://www.w3.org/1999/02/22-rdf-syntax-ns#"
   xmlns:svg="http://www.w3.org/2000/svg"
   xmlns="http://www.w3.org/2000/svg"
   xmlns:sodipodi="http://sodipodi.sourceforge.net/DTD/sodipodi-0.dtd"
   xmlns:inkscape="http://www.inkscape.org/namespaces/inkscape"
   width="800"
   height="800"
   viewBox="0 0 800 800"
   version="1.1"
   id="svg220"
   sodipodi:docname="leaf_4.svg"
   inkscape:version="1.0.1 (3bc2e813f5, 2020-09-07)">
  <metadata
     id="metadata7">
    <rdf:RDF>
      <cc:Work
         rdf:about="">
        <dc:format>image/svg+xml</dc:format>
        <dc:type
           rdf:resource="http://purl.org/dc/dcmitype/StillImage" />
        <dc:title></dc:title>
      </cc:Work>
    </rdf:RDF>
  </metadata>
  <defs
     id="defs224" />
  <sodipodi:namedview
     pagecolor="#ffffff"
     bordercolor="#666666"
     borderopacity="1"
     objecttolerance="10"
     gridtolerance="10"
     guidetolerance="10"
     inkscape:pageopacity="0"
     inkscape:pageshadow="2"
     inkscape:window-width="2560"
     inkscape:window-height="1355"
     id="namedview222"
     showgrid="false"
     inkscape:zoom="0.89355469"
     inkscape:cx="269.48335"
     inkscape:cy="394.37879"
     inkscape:window-x="0"
     inkscape:window-y="0"
     inkscape:window-maximized="1"
     inkscape:current-layer="layer2"
     inkscape:document-rotation="0" />
  <desc
     id="desc2">photosynthesis.blend, (Blender 2.90.0)</desc>
  <g
     inkscape:groupmode="layer"
     id="layer2"
     inkscape:label="Layer 2">
    <g
       id="g932"
       transform="translate(-0.072543,0.49297485)">
      <path
         id="path849"
         style="fill:#000000;fill-opacity:0.2;stroke:none;stroke-width:0.694302px;stroke-linecap:butt;stroke-linejoin:miter;stroke-opacity:1"
         d="m 399.99998,7.9513803 c 0,0 -159.99998,112.0005897 -159.99998,185.9413997 0,69.56832 77.65061,95.24138 138.74783,98.03488 a 59.704216,153.98853 0 0 1 -3.16367,-49.46087 59.704216,153.98853 0 0 1 4.10072,-56.08793 99.311013,77.285036 22.241016 0 1 -46.90336,-59.68827 80.998191,61.942058 22.241016 0 0 48.44249,50.4508 59.704216,153.98853 0 0 1 36.11184,-81.535734 59.74162,129.24154 0 0 0 -24.11074,103.739844 59.74162,129.24154 0 0 0 0.01,2.22664 61.942058,80.998191 67.758984 0 0 37.6347,-7.68072 61.942058,80.998191 67.758984 0 0 52.2964,-52.11739 77.285036,99.311013 67.758984 0 1 -65.12878,68.91624 77.285036,99.311013 67.758984 0 1 -24.1948,7.18034 59.74162,129.24154 0 0 0 17.56232,74.31336 C 473.63527,291.80864 560,267.26178 560,193.89278 560,119.95197 400.00002,7.9513803 400.00002,7.9513803 Z"
         inkscape:transform-center-y="-249.43935"
         inkscape:transform-center-x="0.072540985" />
      <path
         id="path849-6"
         style="fill:#000000;fill-opacity:0.2;stroke:none;stroke-width:0.694302px;stroke-linecap:butt;stroke-linejoin:miter;stroke-opacity:1"
         d="m 791.62819,399.43446 c 0,0 -112.00059,-159.99998 -185.9414,-159.99998 -69.56832,0 -95.24138,77.65061 -98.03488,138.74783 a 153.98853,59.704216 0 0 1 49.46087,-3.16367 153.98853,59.704216 0 0 1 56.08793,4.10072 77.285036,99.311013 22.241016 0 1 59.68827,-46.90336 61.942058,80.998191 22.241016 0 0 -50.4508,48.44249 153.98853,59.704216 0 0 1 81.53573,36.11184 129.24154,59.74162 0 0 0 -103.73984,-24.11074 129.24154,59.74162 0 0 0 -2.22664,0.01 80.998191,61.942058 67.758984 0 0 7.68072,37.6347 80.998191,61.942058 67.758984 0 0 52.11739,52.2964 99.311013,77.285036 67.758984 0 1 -68.91624,-65.12878 99.311013,77.285036 67.758984 0 1 -7.18034,-24.1948 129.24154,59.74162 0 0 0 -74.31336,17.56232 c 0.37533,62.23032 24.92219,148.59505 98.29119,148.59505 73.94081,0 185.9414,-159.99998 185.9414,-159.99998 z"
         inkscape:transform-center-y="-0.072545"
         inkscape:transform-center-x="-249.43935" />
      <path
         id="path849-5"
         style="fill:#000000;fill-opacity:0.2;stroke:none;stroke-width:0.694302px;stroke-linecap:butt;stroke-linejoin:miter;stroke-opacity:1"
         d="m 400.1451,791.06267 c 0,0 159.99998,-112.00059 159.99998,-185.9414 0,-69.56832 -77.65061,-95.24138 -138.74783,-98.03488 a 59.704216,153.98853 0 0 1 3.16367,49.46087 59.704216,153.98853 0 0 1 -4.10072,56.08793 99.311013,77.285036 22.241016 0 1 46.90336,59.68827 80.998191,61.942058 22.241016 0 0 -48.44249,-50.4508 59.704216,153.98853 0 0 1 -36.11184,81.53573 59.74162,129.24154 0 0 0 24.11074,-103.73984 59.74162,129.24154 0 0 0 -0.01,-2.22664 61.942058,80.998191 67.758984 0 0 -37.6347,7.68072 61.942058,80.998191 67.758984 0 0 -52.2964,52.11739 77.285036,99.311013 67.758984 0 1 65.12878,-68.91624 77.285036,99.311013 67.758984 0 1 24.1948,-7.18034 59.74162,129.24154 0 0 0 -17.56232,-74.31336 c -62.23032,0.37533 -148.59505,24.92219 -148.59505,98.29119 0,73.94081 159.99998,185.9414 159.99998,185.9414 z"
         inkscape:transform-center-y="249.43935"
         inkscape:transform-center-x="-0.072539015" />
      <path
         id="path849-56"
         style="fill:#000000;fill-opacity:0.2;stroke:none;stroke-width:0.694302px;stroke-linecap:butt;stroke-linejoin:miter;stroke-opacity:1"
         d="m 8.516896,399.57959 c 0,0 112.000594,159.99998 185.941404,159.99998 69.56832,0 95.24138,-77.65061 98.03488,-138.74783 a 153.98853,59.704216 0 0 1 -49.46087,3.16367 153.98853,59.704216 0 0 1 -56.08793,-4.10072 77.285036,99.311013 22.241016 0 1 -59.68827,46.90336 61.942058,80.998191 22.241016 0 0 50.4508,-48.44249 153.98853,59.704216 0 0 1 -81.535738,-36.11184 129.24154,59.74162 0 0 0 103.739848,24.11074 129.24154,59.74162 0 0 0 2.22664,-0.01 80.998191,61.942058 67.758984 0 0 -7.68072,-37.6347 80.998191,61.942058 67.758984 0 0 -52.11739,-52.2964 99.311013,77.285036 67.758984 0 1 68.91624,65.12878 99.311013,77.285036 67.758984 0 1 7.18034,24.1948 129.24154,59.74162 0 0 0 74.31336,-17.56232 C 292.37416,325.9443 267.8273,239.57957 194.4583,239.57957 c -73.94081,0 -185.941404,159.99998 -185.941404,159.99998 z"
         inkscape:transform-center-y="0.072545"
         inkscape:transform-center-x="249.43935" />
    </g>
  </g>
</svg>
